<svg width="63" height="62" viewBox="0 0 63 62" fill="none" xmlns="http://www.w3.org/2000/svg">
<g clip-path="url(#clip0_5_57)">
<path d="M31.4068 15.104C22.6101 15.104 15.5145 22.2012 15.5145 31C15.5145 39.7988 22.6101 46.896 31.4068 46.896C40.2038 46.896 47.2995 39.7988 47.2995 31C47.2995 22.2012 40.2038 15.104 31.4068 15.104ZM31.4068 41.3346C25.7221 41.3346 21.0747 36.6999 21.0747 31C21.0747 25.3001 25.7084 20.6655 31.4068 20.6655C37.1055 20.6655 41.7391 25.3001 41.7391 31C41.7391 36.6999 37.0916 41.3346 31.4068 41.3346ZM51.6565 14.4537C51.6565 16.5151 49.9965 18.1615 47.9495 18.1615C45.8886 18.1615 44.2427 16.5013 44.2427 14.4537C44.2427 12.4062 45.9024 10.7461 47.9495 10.7461C49.9965 10.7461 51.6565 12.4062 51.6565 14.4537ZM62.1822 18.2168C61.947 13.2501 60.8128 8.85073 57.1751 5.22604C53.5512 1.60136 49.1529 0.46692 44.1873 0.217895C39.0696 -0.0726317 23.7304 -0.0726317 18.6127 0.217895C13.661 0.453086 9.26259 1.58753 5.62491 5.21222C1.9872 8.83688 0.866839 13.2363 0.617872 18.2029C0.327409 23.3217 0.327409 38.6644 0.617872 43.7832C0.853009 48.7498 1.9872 53.1493 5.62491 56.774C9.26259 60.3985 13.6472 61.5331 18.6127 61.7822C23.7304 62.0725 39.0696 62.0725 44.1873 61.7822C49.1529 61.547 53.5512 60.4124 57.1751 56.774C60.799 53.1493 61.9332 48.7498 62.1822 43.7832C62.4726 38.6644 62.4726 23.3356 62.1822 18.2168ZM55.5707 49.2755C54.4919 51.9872 52.4033 54.0762 49.6784 55.169C45.5982 56.7879 35.9161 56.4142 31.4068 56.4142C26.8978 56.4142 17.2019 56.774 13.1354 55.169C10.4245 54.09 8.33588 52.001 7.24319 49.2755C5.62491 45.1943 5.99836 35.5101 5.99836 31C5.99836 26.4899 5.63873 16.7918 7.24319 12.7244C8.32205 10.0128 10.4106 7.92381 13.1354 6.83085C17.2157 5.2122 26.8978 5.58575 31.4068 5.58575C35.9161 5.58575 45.6119 5.22604 49.6784 6.83085C52.3895 7.90996 54.4781 9.99899 55.5707 12.7244C57.1889 16.8056 56.8155 26.4899 56.8155 31C56.8155 35.5101 57.1889 45.2081 55.5707 49.2755Z" fill="url(#paint0_linear_5_57)"/>
</g>
<defs>
<linearGradient id="paint0_linear_5_57" x1="31.4" y1="0" x2="31.4" y2="61.9999" gradientUnits="userSpaceOnUse">
<stop stop-color="#8F00FF"/>
<stop offset="0.630208" stop-color="#EC2012"/>
<stop offset="1" stop-color="#FF7C03"/>
</linearGradient>
<clipPath id="clip0_5_57">
<rect width="62" height="62" fill="white" transform="translate(0.400024)"/>
</clipPath>
</defs>
</svg>
