<svg width="63" height="62" viewBox="0 0 63 62" fill="none" xmlns="http://www.w3.org/2000/svg">
<g clip-path="url(#clip0_5_59)">
<path d="M56.4271 15.4515C56.4665 16.1296 56.4665 16.8078 56.4665 17.4859C56.4665 38.1686 43.6809 62 20.3128 62C13.1135 62 6.42572 59.4328 0.800049 54.9766C1.82293 55.1219 2.80634 55.1703 3.86857 55.1703C9.80886 55.1703 15.2772 52.7 19.644 48.4861C14.0577 48.3406 9.37618 43.8361 7.76321 37.6359C8.55007 37.7811 9.33683 37.8781 10.1631 37.8781C11.3039 37.8781 12.4448 37.6842 13.5069 37.3453C7.68461 35.892 3.31772 29.5953 3.31772 21.9906V21.7969C5.00929 22.9594 6.97647 23.6861 9.06134 23.7828C5.63874 20.9734 3.39642 16.1781 3.39642 10.753C3.39642 7.84682 4.02576 5.18277 5.12736 2.85775C11.3825 12.3515 20.7848 18.5514 31.3278 19.2296C31.1313 18.0671 31.0133 16.8563 31.0133 15.6453C31.0133 7.02336 36.6782 0 43.7202 0C47.3788 0 50.6832 1.88906 53.0045 4.94061C55.8761 4.26252 58.6299 2.95465 61.0692 1.16251C60.1247 4.79541 58.1186 7.84697 55.4828 9.78432C58.0399 9.44543 60.5184 8.57336 62.8 7.36256C61.0694 10.4624 58.9056 13.2233 56.4271 15.4515Z" fill="white"/>
<path d="M56.4271 15.4515C56.4665 16.1296 56.4665 16.8078 56.4665 17.4859C56.4665 38.1686 43.6809 62 20.3128 62C13.1135 62 6.42572 59.4328 0.800049 54.9766C1.82293 55.1219 2.80634 55.1703 3.86857 55.1703C9.80886 55.1703 15.2772 52.7 19.644 48.4861C14.0577 48.3406 9.37618 43.8361 7.76321 37.6359C8.55007 37.7811 9.33683 37.8781 10.1631 37.8781C11.3039 37.8781 12.4448 37.6842 13.5069 37.3453C7.68461 35.892 3.31772 29.5953 3.31772 21.9906V21.7969C5.00929 22.9594 6.97647 23.6861 9.06134 23.7828C5.63874 20.9734 3.39642 16.1781 3.39642 10.753C3.39642 7.84682 4.02576 5.18277 5.12736 2.85775C11.3825 12.3515 20.7848 18.5514 31.3278 19.2296C31.1313 18.0671 31.0133 16.8563 31.0133 15.6453C31.0133 7.02336 36.6782 0 43.7202 0C47.3788 0 50.6832 1.88906 53.0045 4.94061C55.8761 4.26252 58.6299 2.95465 61.0692 1.16251C60.1247 4.79541 58.1186 7.84697 55.4828 9.78432C58.0399 9.44543 60.5184 8.57336 62.8 7.36256C61.0694 10.4624 58.9056 13.2233 56.4271 15.4515Z" stroke="white"/>
</g>
<defs>
<clipPath id="clip0_5_59">
<rect width="62" height="62" fill="white" transform="translate(0.800049)"/>
</clipPath>
</defs>
</svg>
