<svg width="81" height="62" viewBox="0 0 81 62" fill="none" xmlns="http://www.w3.org/2000/svg">
<g clip-path="url(#clip0_5_62)">
<path d="M79.1157 9.70089C78.1888 5.88241 75.4576 2.87509 71.9898 1.85451C65.7043 0 40.5 0 40.5 0C40.5 0 15.2958 0 9.01006 1.85451C5.54231 2.87526 2.81113 5.88241 1.88417 9.70089C0.199951 16.6221 0.199951 31.0627 0.199951 31.0627C0.199951 31.0627 0.199951 45.503 1.88417 52.4245C2.81113 56.2429 5.54231 59.1249 9.01006 60.1455C15.2958 62 40.5 62 40.5 62C40.5 62 65.7041 62 71.9898 60.1455C75.4576 59.1249 78.1888 56.2429 79.1157 52.4245C80.8 45.503 80.8 31.0627 80.8 31.0627C80.8 31.0627 80.8 16.6221 79.1157 9.70089ZM32.2566 44.1735V17.9518L53.3226 31.063L32.2566 44.1735Z" fill="#FE0000" fill-opacity="0.97"/>
</g>
<defs>
<clipPath id="clip0_5_62">
<rect width="80.6" height="62" fill="white" transform="translate(0.199951)"/>
</clipPath>
</defs>
</svg>
